<?xml version="1.0" encoding="utf-8"?>
<!-- Generator: Adobe Illustrator 23.0.0, SVG Export Plug-In . SVG Version: 6.00 Build 0)  -->
<svg version="1.1" xmlns="http://www.w3.org/2000/svg" xmlns:xlink="http://www.w3.org/1999/xlink" x="0px" y="0px"
	 viewBox="0 0 712.46 749.96" style="enable-background:new 0 0 712.46 749.96;" xml:space="preserve">
<style type="text/css">
	.st0{fill:#FFB85C;}
	.st1{fill:#3F3E77;}
	.st2{fill:#FF8763;}
	.st3{fill:#FFDBC4;}
	.st4{fill:#EDAD82;}
	.st5{fill:#002039;}
	.st6{fill:#323232;}
	.st7{fill:#ED6F6F;}
	.st8{fill:#2E2D6E;}
	.st9{fill:#0F0D45;}
	.st10{fill:#AFBAC8;}
	.st11{fill:#A2B1C8;}
	.st12{fill:#E5E6EA;}
	.st13{fill:none;stroke:#3F3E77;stroke-width:8;stroke-linecap:round;stroke-linejoin:round;stroke-miterlimit:10;}
	.st14{fill:#888DF5;}
	.st15{fill:#6E79C8;}
	.st16{fill:none;stroke:#3F3E77;stroke-width:3;stroke-miterlimit:10;}
	.st17{font-family:'SourceHanSansCN-Medium';}
	.st18{font-size:44.2658px;}
	.st19{fill:#FFFFFF;}
	.st20{fill:#E8E8E8;}
	.st21{fill:#262B55;}
	.st22{fill:#E5E6EA;stroke:#002039;stroke-width:8;stroke-linecap:round;stroke-linejoin:round;stroke-miterlimit:10;}
	.st23{fill:#EEEFF2;}
</style>
<g id="图层_5">
	<g>
		<rect x="41.75" y="162.24" class="st0" width="28.09" height="8.3"/>
		<rect x="80.1" y="162.24" class="st1" width="101.84" height="8.3"/>
	</g>
	<g>
		<rect x="102.41" y="192.6" class="st0" width="55.32" height="8.3"/>
		<rect x="177.94" y="192.6" class="st1" width="146.39" height="8.3"/>
	</g>
	<g>
		<rect x="198.92" y="219.23" class="st0" width="23.73" height="8.3"/>
		<rect x="231.32" y="219.23" class="st1" width="62.8" height="8.3"/>
	</g>
	<g>
		<rect x="513.32" y="261.08" class="st0" width="28.09" height="8.3"/>
		<rect x="551.68" y="261.08" class="st1" width="101.84" height="8.3"/>
	</g>
	<g>
		<rect x="459.95" y="209.1" class="st0" width="28.09" height="8.3"/>
		<rect x="498.3" y="209.1" class="st1" width="101.84" height="8.3"/>
	</g>
	<g>
		<rect x="84.79" y="413.04" class="st0" width="55.32" height="8.3"/>
		<rect x="160.32" y="413.04" class="st1" width="146.39" height="8.3"/>
	</g>
	<g>
		<rect x="443.57" y="71.83" class="st0" width="23.73" height="8.3"/>
		<rect x="475.97" y="71.83" class="st1" width="62.8" height="8.3"/>
	</g>
</g>
<g id="图层_8">
	<g>
		<path class="st0" d="M471.7,580.25c-18.8-32.02-58.81-102.77-66.39-108.19c-6.16-4.42-33.78-8.83-56.19-10.32
			c-5.14-0.34-10-0.53-14.27-0.53h-41.93c-4.27,0-9.13,0.19-14.27,0.53c-22.41,1.49-50.03,5.9-56.2,10.32
			c-7.57,5.42-47.59,76.17-66.38,108.19c-18.79,32.02,5.15,34.35,5.15,34.35h82.7v-2.84H384.1l3.94-80.3
			c0,0,26.58,36.91,32.95,50.08c0,0-26.16-15.68-35.86-12.84l0.22,45.9h81.19C466.54,614.6,490.49,612.27,471.7,580.25z
			 M203.94,581.54c6.37-13.17,35.79-50.08,35.79-50.08l2.96,37.24C230.5,567.76,203.94,581.54,203.94,581.54z"/>
		<path class="st2" d="M349.12,461.74v10.02l-0.36,1.31c-2.08,7.51-11.77,20.22-34.88,20.22c-23.1,0-32.79-12.71-34.87-20.22
			l-0.36-1.31v-10.02c5.14-0.34,10-0.53,14.27-0.53h41.93C339.12,461.21,343.98,461.4,349.12,461.74z"/>
		<path class="st3" d="M339.12,470.4c0,0-3.57,12.88-25.23,12.88c-21.67,0-25.23-12.88-25.23-12.88v-61.18h50.47V470.4z"/>
		<path class="st4" d="M339.12,426.59v43.81c0,0-0.38,1.39-1.67,3.26c-28.54-2.7-42.24-10.94-48.8-18.12v-21.66l12.16-19.38
			L339.12,426.59z"/>
		<g>
			<g>
				<g>
					<path class="st5" d="M253.04,305.7c-16.14,7.79-26.95,32.07-24.73,50.43c1.67,12.24,6.3,36.42,15.76,44.76
						c5.56-7.79,3.71-13.05,7.61-21.95c5.56-12.8,13.35-22.26,22.81-32.27c10.02-11.13,15.58-20.03,31.72-22.26
						c16.14-2.78,45.07-5.56,60.65,0.56c12.8,5.01,10.32,53.56,13.66,66.35c7.79,27.27,25.08-29.5,25.08-42.29
						c0-16.69,1.39-18.91-8.79-39.06c-10.1-19.98-60.75-13.57-80.78-13.57c-27.27,0-41.3-18.42-59.67,3.29"/>
				</g>
				<path class="st3" d="M311.99,310.07c47.98-18.72,74.09,28.78,74.09,28.78s-3.72,65.93-5.44,79.29
					c-4.08,31.64-45.25,40.74-63.97,40.74s-59.89-9.1-63.97-40.74c-1.72-13.35-5.44-79.29-5.44-79.29S264.01,291.35,311.99,310.07z"
					/>
				<path class="st3" d="M230.14,398.61c2.29,11.33,10.87,19.16,19.16,17.48c8.29-1.67,13.17-12.22,10.88-23.55
					c-2.29-11.33-10.87-19.16-19.16-17.48C232.72,376.74,227.85,387.28,230.14,398.61z"/>
				<path class="st3" d="M401.1,398.61c-2.29,11.33-10.87,19.16-19.16,17.48c-8.29-1.67-13.16-12.22-10.88-23.55
					c2.29-11.33,10.87-19.16,19.16-17.48C398.52,376.74,403.39,387.28,401.1,398.61z"/>
				<g>
					<path class="st5" d="M370.43,310.56c0,20.78-22.64,39.63-40.55,46.06c-13.17,4.41-30.81,3.69-25.26-15.52
						c-8.29,11.33-13.19,20.95-26.74,27.81c-3.74,2.27-13.01,7.21-17.56,5.88c-3.55-1.08-3.78-6.23-6.74-8.86
						c-5.39,11.62-20.36,16.43-19.19-1.31c-3.14,0.71-5.77,0.23-9.33-0.85c-6.66-2.27-6.29-25.97-5.64-30.73
						c2.72-19.98,3.7-36.77,21.89-43.6c-8.66-2.76-17.39-8.59-10.96-15c4.25-4.24,49.1-4.61,58.33-7.65
						c21.7-6.35,40.67-10.19,62.19-2.8c10.76,3.7,21.93,9.19,29.11,17.95c3.47,4.88,5.84,9.06,8.41,14.15c0.25-1,0,0,0.24-1
						c11.07,5.04,16.49,16.68,18.49,27.56c2.2,11.78-3.18,19.03-15.78,17.64c-3.17,15.34,8.97,36.35-7.59,32.08
						c-12.56-3.29-22.46-28.04-24.81-38.37"/>
				</g>
				<g>
					<path class="st5" d="M388.68,301.12c6.52,1.09,22.44,7.96,22.81-3.26c0.36-9.05-9.41-5.79-15.2-4.34
						c-1.45-5.79-2.17-25.34-13.39-23.89c-5.07,0.72-7.96,8.69-7.96,13.39c0,7.24,7.24,15.57,12.67,20.27"/>
				</g>
			</g>
			<g>
				<ellipse class="st6" cx="352.88" cy="399.19" rx="8.94" ry="9.98"/>
				<ellipse class="st6" cx="284.54" cy="399.19" rx="8.94" ry="9.98"/>
				<path class="st7" d="M337.26,429.12c-2.89,7.28-10.68,12.5-19.84,12.5c-9.16,0-16.95-5.22-19.84-12.5H337.26z"/>
			</g>
		</g>
	</g>
</g>
<g id="图层_6">
	<g>
		<path class="st1" d="M648.9,414.48c2.2,0,3.94,1.8,3.86,4l-5.47,151.06c-0.08,2.2-1.94,4-4.15,4H408.15c-2.2,0-4.06-1.8-4.15-4
			l-5.47-151.06c-0.08-2.2,1.65-4,3.86-4H648.9z"/>
	</g>
	<polygon class="st8" points="652.9,414.48 647.14,573.54 407.18,573.54 651.76,414.48 	"/>
	<path class="st1" d="M458.84,597.33c0,4.59-3.72,8.3-8.3,8.3H195.7c-4.59,0-8.3-3.72-8.3-8.3l0,0c0-4.59,3.72-8.3,8.3-8.3h254.84
		C455.13,589.02,458.84,592.74,458.84,597.33L458.84,597.33z"/>
	<g>
		<path class="st9" d="M561.87,600.62c0.26,2.19-1.33,3.97-3.53,3.97h-65.37c-2.2,0-3.79-1.79-3.53-3.97l11.2-95.34
			c0.26-2.19,2.27-3.97,4.47-3.97h41.1c2.2,0,4.21,1.79,4.47,3.97L561.87,600.62z"/>
	</g>
	
		<ellipse transform="matrix(0.2298 -0.9732 0.9732 0.2298 -113.9847 922.2338)" class="st8" cx="525.65" cy="533.13" rx="15.2" ry="15.2"/>
	<path class="st9" d="M478.9,539.81c0,3.87-3.13,7-7,7h-52.06c-3.87,0-7-3.13-7-7v-14.88c0-3.87,3.13-7,7-7h52.06c3.87,0,7,3.13,7,7
		V539.81z"/>
</g>
<g id="图层_4">
	<rect x="69.36" y="625.65" class="st10" width="419.62" height="75.65"/>
	<rect x="446.83" y="625.65" class="st11" width="194.75" height="75.65"/>
	<rect x="54" y="605.63" class="st12" width="601.47" height="36.18"/>
</g>
<g id="图层_7">
	<polygon class="st1" points="134.96,605.63 87.53,605.63 80.1,529.89 142.39,529.89 	"/>
	<g>
		<path class="st13" d="M84.33,546.81c0,0-5.17,2.59-11.5,5.75c-6.33,3.16-7.09,12-1.71,19.65l17.71,25.12"/>
	</g>
	<g>
		<g>
			<path class="st0" d="M679.65,185.56c0,9.35-7.65,17-17,17h-120c-9.35,0-17-7.65-17-17v-58c0-9.35,7.65-17,17-17h120
				c9.35,0,17,7.65,17,17V185.56z"/>
		</g>
		<polyline class="st0" points="554.03,178.56 561.65,240.36 602.65,190.56 		"/>
	</g>
	<g>
		<g>
			<path class="st14" d="M41.75,294.23c0,9.35,7.65,17,17,17h120c9.35,0,17-7.65,17-17v-58c0-9.35-7.65-17-17-17h-120
				c-9.35,0-17,7.65-17,17V294.23z"/>
		</g>
		<polyline class="st14" points="167.37,287.23 159.75,349.03 118.75,299.23 		"/>
	</g>
	<g>
		<g>
			<path class="st1" d="M181.93,109.6c0,9.35,7.65,17,17,17H334.4c9.35,0,17-7.65,17-17V42.36c0-9.35-7.65-17-17-17H198.93
				c-9.35,0-17,7.65-17,17V109.6z"/>
		</g>
		<polyline class="st1" points="320.17,100.19 311.78,168.19 266.67,113.39 		"/>
	</g>
	<g>
		<g>
			<path class="st15" d="M583.42,338.48c0,9.35-7.65,17-17,17h-81.54c-9.35,0-17-7.65-17-17v-35.02c0-9.35,7.65-17,17-17h81.54
				c9.35,0,17,7.65,17,17V338.48z"/>
		</g>
		<polyline class="st15" points="489.17,337.47 494.89,383.84 525.65,346.47 		"/>
	</g>
	<g>
		<g>
			<path class="st12" d="M451.38,214.26c0,9.35-7.65,17-17,17h-81.54c-9.35,0-17-7.65-17-17v-35.02c0-9.35,7.65-17,17-17h81.54
				c9.35,0,17,7.65,17,17V214.26z"/>
		</g>
		<polyline class="st12" points="357.14,213.25 362.86,259.62 393.61,222.26 		"/>
	</g>
	<line class="st16" x1="384.45" y1="604.59" x2="384.45" y2="701.3"/>
	<text transform="matrix(1 0 0 1 562.3359 170.5391)" class="st1 st17 st18">php</text>
	<text transform="matrix(1 0 0 1 491.1709 336.4717)" class="st19 st17 st18">&lt;/&gt;</text>
	<g>
		<text transform="matrix(1 0 0 1 210.5068 89.1558)" class="st20 st17 st18">html</text>
	</g>
	<g>
		<text transform="matrix(1 0 0 1 83.7456 284.3779)" class="st20 st17 st18">c++</text>
	</g>
	<g>
		<text transform="matrix(1 0 0 1 359.1357 211.2549)" class="st21 st17 st18">css</text>
	</g>
	<g>
		<path class="st22" d="M304.03,395.55c0,0,6.8-7.26,20.3,0"/>
		<g>
			<path class="st23" d="M278.16,421.19c-4.65,0-9.22-1.26-13.2-3.65c-1.42-0.86-2.72-1.83-3.9-2.89c-2.06-1.83-3.8-3.99-5.18-6.41
				c-2.2-3.83-3.36-8.22-3.36-12.69c0-14.14,11.5-25.64,25.64-25.64c0.27,0,0.54,0,0.8,0.02c2.73,0.07,5.42,0.58,8.01,1.53
				c1.48,0.54,2.95,1.24,4.36,2.08c4.79,2.88,8.56,7.3,10.63,12.45c1.23,3.02,1.85,6.24,1.85,9.56c0,13.13-9.83,24.08-22.87,25.49
				C280.07,421.14,279.15,421.19,278.16,421.19z"/>
			<path class="st5" d="M278.16,373.91c0.2,0,0.4,0,0.59,0.02c2.41,0.05,4.71,0.51,6.85,1.29c1.29,0.47,2.53,1.07,3.69,1.76
				c4.02,2.42,7.19,6.1,8.96,10.5c1.01,2.49,1.56,5.21,1.56,8.07c0,11.16-8.44,20.34-19.3,21.51c-0.77,0.09-1.55,0.13-2.35,0.13
				c-4.07,0-7.89-1.13-11.14-3.08c-1.17-0.71-2.27-1.52-3.28-2.43c-1.74-1.55-3.22-3.38-4.38-5.42c-1.81-3.15-2.84-6.81-2.84-10.71
				C256.52,383.6,266.21,373.91,278.16,373.91 M278.16,365.91c-16.34,0-29.64,13.3-29.64,29.64c0,5.17,1.35,10.25,3.9,14.69
				c1.58,2.77,3.6,5.27,6,7.41c1.33,1.2,2.84,2.32,4.45,3.3c4.64,2.78,9.91,4.24,15.29,4.24c1.13,0,2.19-0.06,3.24-0.18
				c15.06-1.64,26.41-14.3,26.41-29.46c0-3.84-0.72-7.57-2.15-11.08c-2.38-5.93-6.74-11.03-12.25-14.35
				c-1.66-0.99-3.36-1.8-5.08-2.42c-2.96-1.08-6.05-1.67-9.17-1.77C278.75,365.91,278.4,365.91,278.16,365.91L278.16,365.91z"/>
		</g>
		<g>
			<path class="st23" d="M351.02,421.19c-5.18,0-10.17-1.54-14.43-4.45c-1.34-0.9-2.61-1.96-3.76-3.12c-2-2.01-3.64-4.32-4.89-6.88
				c-1.7-3.52-2.57-7.28-2.57-11.2c0-13.83,10.82-25.08,24.63-25.62c0.34-0.01,0.67-0.02,1.01-0.02c2.53,0,5.02,0.37,7.41,1.09
				c1.5,0.44,3.03,1.07,4.51,1.85c4.79,2.51,8.76,6.6,11.15,11.5c1.7,3.52,2.57,7.28,2.57,11.19c0,13.83-10.82,25.08-24.63,25.62
				C351.69,421.18,351.36,421.19,351.02,421.19z"/>
			<path class="st5" d="M351.02,373.91c2.17,0,4.27,0.32,6.24,0.92c1.33,0.39,2.6,0.92,3.81,1.56c4.09,2.14,7.4,5.56,9.43,9.72
				c1.38,2.85,2.16,6.05,2.16,9.44c0,11.66-9.23,21.17-20.79,21.62c-0.28,0.01-0.56,0.02-0.85,0.02c-4.51,0-8.7-1.38-12.17-3.75
				c-1.14-0.77-2.2-1.65-3.17-2.63c-1.68-1.69-3.08-3.65-4.14-5.82c-1.38-2.85-2.16-6.05-2.16-9.44c0-11.66,9.23-21.17,20.79-21.62
				C350.45,373.92,350.73,373.91,351.02,373.91 M351.02,365.91c-0.39,0-0.77,0.01-1.14,0.03c-15.99,0.62-28.5,13.63-28.5,29.61
				c0,4.52,1,8.87,2.96,12.93c1.45,2.97,3.36,5.65,5.67,7.97c1.32,1.34,2.8,2.56,4.37,3.62c4.89,3.34,10.66,5.12,16.65,5.12
				c0.39,0,0.77-0.01,1.14-0.03c15.99-0.62,28.5-13.63,28.5-29.61c0-4.52-1-8.87-2.96-12.93c-2.78-5.69-7.36-10.41-12.92-13.32
				c-1.68-0.89-3.45-1.61-5.23-2.14C356.81,366.33,353.94,365.91,351.02,365.91L351.02,365.91z"/>
		</g>
		<g>
			<path class="st19" d="M298.25,387.48l-17.74,29.58c-0.77,0.09-1.55,0.13-2.35,0.13c-4.07,0-7.89-1.13-11.14-3.08l22.27-37.13
				C293.31,379.4,296.48,383.08,298.25,387.48z"/>
			<path class="st19" d="M263.74,411.68l21.86-36.46c-2.14-0.78-4.44-1.24-6.85-1.29l-19.39,32.33L263.74,411.68z"/>
			<path class="st19" d="M370.5,386.11l-18.63,31.06c-0.28,0.01-0.56,0.02-0.85,0.02c-4.51,0-8.7-1.38-12.17-3.75l22.22-37.05
				C365.16,378.53,368.47,381.95,370.5,386.11z"/>
			<path class="st19" d="M357.26,374.83l-21.58,35.98c-1.68-1.69-3.08-3.65-4.14-5.82l18.63-31.06c0.28-0.01,0.56-0.02,0.85-0.02
				C353.19,373.91,355.29,374.23,357.26,374.83z"/>
		</g>
	</g>
	<path class="st3" d="M233.69,588.03c0,0,0.33-14.33,9-19.33c8.67-5,21.33-4,27.67-3s14.43,5.27,14.1,13.61s-2.84,11.17-6.27,10.26
		c-5.58-1.48-4.83-10.54-4.83-10.54s0.33,8.34-4,9.01s-2,2-7,0.67c-5-1.33-1,0-6.67,0.67s-6-1-6-1s-1.36,1.32-6.67,1.33
		c-3.35,0.01-3-2.33-3-2.33S236.21,591.81,233.69,588.03z"/>
	<path class="st3" d="M394.13,588.03c0,0-0.33-14.33-9-19.33c-8.67-5-21.33-4-27.67-3c-6.33,1-14.43,5.27-14.1,13.61
		s2.84,11.17,6.27,10.26c5.58-1.48,4.83-10.54,4.83-10.54s-0.33,8.34,4,9.01c4.33,0.67,2,2,7,0.67c5-1.33,1,0,6.67,0.67s6-1,6-1
		s1.36,1.32,6.67,1.33c3.35,0.01,3-2.33,3-2.33S391.62,591.81,394.13,588.03z"/>
</g>
</svg>
